<?xml version="1.0" encoding="UTF-8"?>
<svg id="Layer_2" data-name="Layer 2" xmlns="http://www.w3.org/2000/svg" viewBox="0 0 291.4 304.53">
  <g id="Layer_1-2" data-name="Layer 1">
    <g>
      <path fill="#fff" d="M136.92,78.41c53.75-6.14,89.96,52.51,58.04,97.04-31.3,43.67-100.92,27.22-109.67-25.96-5.44-33.06,17.75-67.21,51.64-71.08ZM142.95,106.42c-42.64,2.98-38.35,69.4,5.69,65.7,42.37-3.55,37.73-68.73-5.69-65.7Z"/>
      <path fill="#fff" d="M139.94,238.43c28.93-1.57,59.79,8.95,81.68,27.73,8.93,7.66,26.95,22.78,13.58,34.52s-23.48-5.83-32.04-13.06c-34.12-28.86-86.41-27.37-119.02,3-6.3,5.87-8.95,14.3-19.47,13.54-10.2-.74-16.02-10.74-12.01-20.03,2.02-4.68,13.69-15.4,18.02-18.97,19.54-16.09,43.91-25.36,69.27-26.73Z"/>
      <path fill="#fff" d="M178.49,24.78c-10.71-9.64-2.62-27.58,13.92-24.41,10.22,1.96,31.88,14.89,40.64,21.35,7.06,5.21,28.53,24.56,30.61,32.38,3.45,12.92-8.33,22.93-20.23,17.23-13.66-14.2-25.44-27.51-43.28-36.72-5.53-2.86-17.99-6.52-21.67-9.83Z"/>
      <path fill="#fff" d="M30.48,68.79c-4.53-4.48-4.29-12.07-1.54-17.36,7.09-13.67,33.47-33.48,47.18-40.82,9.93-5.32,36.86-19.76,40.79-.75,3.25,15.71-9.33,16.53-19.12,21.42-22.71,11.32-28.12,19.01-45.13,35.87-6.43,6.37-14.96,8.79-22.17,1.65Z"/>
      <path fill="#fff" d="M14.64,129.64c5.07,0,11.19,5.02,12.73,9.76,1.86,5.71,1.67,16.94,3.06,23.94,2.46,12.35,7.41,23.73,13.19,34.81,2,3.83,6.03,7.88,7.26,11.76,4.35,13.64-11.22,24.82-22.7,15.68C15.03,215.14,1.13,169.38.15,152.62c-.65-11.1.18-22.96,14.49-22.98Z"/>
      <path fill="#fff" d="M243.48,224.79c-1.75-1.75-3.65-6.14-3.89-8.61-.69-7.1,10.01-20.98,13.41-28.7s6.27-16.12,7.85-24.15.92-24.65,6.64-29.85c6.65-6.04,19.93-4.15,22.88,4.92,4.01,12.31-4.66,44.31-9.76,56.7-2.63,6.38-12.71,26.71-17.51,30.49-5.61,4.43-14.5,4.32-19.62-.8Z"/>
    </g>
  </g>
</svg>