<?xml version="1.0" encoding="UTF-8"?>
<svg id="Layer_2" xmlns="http://www.w3.org/2000/svg" viewBox="0 0 158.42 122.67">
  <g id="Layer_1-2" data-name="Layer_1">
    <g>
      <path fill="#AFAA47" d="M156.26,56.75c-2.94-4.32-7.22-5.68-12.22-5.6-8.38.14-16.77.21-25.15.27-6.19.04-12.39,0-18.58,0h-1.37s0,0,.01-.01h-24.18l26.82,9.92c5.88,2.16,6.96,4.62,6.96,7.9,0,4-3.71,7.54-11.01,7.54h-43.09c-.13,0-.23-.03-.34-.04-13.57,13.55-27.13,27.11-40.7,40.68-.47.47-.97.91-1.35,1.44-1.04,1.45-.19,3.45,1.57,3.73.52.08,1.05.08,1.58.08,12.56,0,25.12.01,37.68,0,11.37-.01,22.75-.03,34.12-.09,1.97-.01,3.96-.1,5.91-.38,9.53-1.39,17.65-5.6,24.45-12.39,11.4-11.4,22.8-22.79,34.2-34.19,1.24-1.24,2.52-2.45,3.69-3.75,3.81-4.26,4.21-10.38,1-15.1Z"/>
      <path fill="#AFAA47" d="M44.62,71.46h14.36s.01.02.02.02h27.46l-26.88-9.92c-5.82-2.15-6.96-4.62-6.96-7.86,0-4,3.71-7.54,11.07-7.54h40.44c13.62-13.63,27.25-27.26,40.87-40.89.34-.34.67-.69,1-1.05.8-.86.95-1.9.53-2.94-.41-1.01-1.37-1.28-2.4-1.29-.48,0-.97,0-1.45,0-22.58,0-45.15,0-67.73.01-2.41,0-4.83.06-7.23.25-9.57.76-18.05,4.23-24.91,10.97C29.54,24.29,16.42,37.51,3.27,50.69c-2.92,2.93-3.79,6.57-2.97,10.57,1.32,6.45,6.07,10.17,12.97,10.19,10.45.02,20.91,0,31.36,0Z"/>
    </g>
  </g>
</svg>
