<?xml version="1.0" encoding="UTF-8"?>
<svg id="Layer_2" xmlns="http://www.w3.org/2000/svg" viewBox="0 0 443.44 434.72">
  <g id="Layer_1-2" data-name="Layer_1">
    <g>
      <path fill="#fff" d="M70.86,303.83c8.95-.37,17.08-2.25,25.02-5.09,16.91-6.05,31.57-16.01,45.36-27.13,42.42-34.19,84.56-68.72,126.83-103.1,16.44-13.38,32.82-26.84,51.09-37.76,15.95-9.54,33.02-15.61,51.66-16.94.39-.03.78-.14,1.62-.29,0-2.13.02-4.3,0-6.46-.07-8.1-.13-16.2-.24-24.3-.05-3.69,1.09-6.75,4.47-8.52,3.46-1.82,6.74-1.19,9.82,1.12,17.52,13.13,35.08,26.21,52.57,39.37,5.85,4.41,5.83,10.56-.03,14.97-17.25,12.98-34.57,25.88-51.85,38.84-3.05,2.29-6.27,3.13-9.78,1.27-3.48-1.84-4.67-4.97-4.65-8.76.04-9.88.01-19.77.01-30.59-5.98,1.05-11.48,1.72-16.83,3.02-15.61,3.81-29.5,11.44-42.05,21.14-22.54,17.41-44.68,35.35-66.84,53.25-31.12,25.12-62.02,50.51-93.19,75.55-12.63,10.15-25.94,19.4-40.6,26.53-12.27,5.97-25.18,9.69-38.77,10.76-2.92.23-3.61,1.24-3.54,3.99.24,9,.19,18,.32,27,.05,3.77-.93,6.96-4.48,8.81-3.62,1.88-6.92,1.07-10.06-1.29-17.44-13.07-34.92-26.09-52.34-39.19-5.79-4.36-5.74-10.64.07-15.01,17.18-12.91,34.42-25.76,51.61-38.67,3.13-2.35,6.42-3.3,10.04-1.39,3.47,1.84,4.62,4.97,4.62,8.77,0,9,.11,18,.17,27,0,.88,0,1.76,0,3.09ZM389.77,145.3c10.55-7.9,20.48-15.33,30.84-23.09-10.46-7.83-20.5-15.34-30.84-23.07v46.16ZM22.81,312.55c10.48,7.84,20.52,15.34,30.82,23.04v-46.09c-10.5,7.85-20.38,15.24-30.82,23.05Z"/>
      <path fill="#fff" d="M71.01,113.67c12.54.88,24.2,3.5,35.39,8.09,15.4,6.31,29.19,15.39,42.18,25.59,18.4,14.44,36.43,29.35,54.63,44.04,2.89,2.34,4.29,5.27,3.5,8.97-.74,3.46-3.04,5.57-6.43,6.39-3.21.78-5.84-.49-8.27-2.5-10.49-8.65-20.98-17.31-31.53-25.89-14.43-11.74-28.87-23.46-44.93-32.98-11.81-7.01-24.34-12.07-38.04-13.89-1.68-.22-3.38-.35-5.07-.48-.38-.03-.77.08-1.67.19,0,4.57.01,9.14,0,13.7-.02,5.5-.09,11-.08,16.5.01,3.72-1.36,6.69-4.68,8.44-3.36,1.77-6.56,1.07-9.53-1.16-17.52-13.13-35.09-26.2-52.55-39.41-5.25-3.97-5.2-10.23.06-14.2,17.72-13.37,35.52-26.62,53.29-39.91,2.89-2.16,6.03-2.66,9.3-1.04,3.3,1.63,4.7,4.5,4.67,8.09-.06,8.2-.15,16.4-.22,24.6-.02,2.18,0,4.36,0,6.86ZM53.72,99.08c-10.48,7.85-20.53,15.38-30.9,23.15,10.43,7.79,20.34,15.2,30.9,23.09v-46.24Z"/>
      <path fill="#fff" d="M372.67,303.58c0-4.69,0-9.26,0-13.83.01-5.4.06-10.8.07-16.2,0-3.65,1.14-6.72,4.51-8.53,3.48-1.88,6.72-1.18,9.79,1.12,17.44,13.07,34.94,26.07,52.35,39.18,5.47,4.12,5.31,10.49-.2,14.62-17.36,13.02-34.75,25.99-52.09,39.03-3.21,2.41-6.53,3.53-10.3,1.61-3.66-1.87-4.69-5.12-4.62-9.03.16-9.3.18-18.6.28-27.9.02-1.52-.05-2.64-2.12-2.78-22.3-1.55-42.31-9.7-60.14-22.67-18.42-13.39-36.13-27.77-54.09-41.8-5.59-4.37-11.04-8.92-16.45-13.52-3.33-2.84-4.04-6.88-2.18-10.57,1.61-3.21,5.49-5.26,9.06-4.28,1.94.53,3.83,1.71,5.42,2.99,17.77,14.28,35.32,28.83,53.26,42.89,12.85,10.07,26.32,19.41,42,24.57,7.53,2.48,15.52,3.58,23.31,5.26.54.12,1.15-.08,2.12-.16ZM389.78,289.48v46.15c10.44-7.82,20.49-15.36,30.84-23.12-10.45-7.81-20.34-15.19-30.84-23.04Z"/>
      <path fill="#fff" d="M230.11,363.67c1.98,0,3.56,0,5.13,0,8.4-.05,16.8-.04,25.19-.19,4.04-.07,7.35,1.08,9.24,4.83,1.84,3.67.65,6.92-1.68,10.02-13.09,17.42-26.13,34.88-39.2,52.32-3.99,5.33-10.45,5.46-14.42.18-13.22-17.57-26.38-35.19-39.56-52.8-2.08-2.79-2.62-5.85-1.05-9.03,1.6-3.26,4.35-4.82,7.99-4.85,8.7-.07,17.4-.16,26.09-.23,1.67-.01,3.35,0,5.49,0,0-2.2,0-3.96,0-5.73,0-29.9-.01-59.8.01-89.7,0-6.75,5.83-10.79,11.83-8.28,3.2,1.34,4.98,4.39,4.98,8.49-.02,30.1-.03,60.2-.04,90.3,0,1.39,0,2.79,0,4.66ZM221.49,411.94c7.84-10.49,15.37-20.56,23.05-30.83h-46.14c7.87,10.5,15.32,20.45,23.09,30.83Z"/>
      <path fill="#fff" d="M213.32,71.19c-9.58,0-18.66,0-27.74,0-1.4,0-2.8.06-4.2.03-3.53-.08-6.13-1.76-7.66-4.89-1.49-3.06-1.07-6.05.94-8.76,5.36-7.22,10.77-14.41,16.16-21.62,7.78-10.41,15.56-20.82,23.35-31.22,4.72-6.31,10.78-6.3,15.5,0,12.89,17.19,25.77,34.4,38.67,51.58,2.23,2.97,3,6.14,1.3,9.53-1.68,3.36-4.6,4.77-8.34,4.79-9.2.04-18.39.27-27.59.21-2.83-.02-3.68.82-3.67,3.72.11,30.4.07,60.79.06,91.19,0,4.97-2.03,8.02-6.07,9.17-5.09,1.46-10.12-1.9-10.65-7.17-.11-1.09-.06-2.2-.06-3.3,0-29.8,0-59.59,0-89.39,0-1.18,0-2.36,0-3.89ZM198.81,53.73h46.29c-7.9-10.56-15.39-20.56-23.15-30.92-7.84,10.48-15.34,20.5-23.14,30.92Z"/>
    </g>
  </g>
</svg>