<?xml version="1.0" encoding="UTF-8"?>
<svg id="Layer_2" data-name="Layer 2" xmlns="http://www.w3.org/2000/svg" viewBox="0 0 265.08 255.33">
  <g id="Layer_1-2" data-name="Layer 1">
    <g>
      <path fill="#AFAA47" d="M183.57,185.63c21.66,18.11,43.61,36.01,64.94,54.56,7.61,7.76-.83,18.9-10.89,13.88l-72.11-58.86-14.07,47.96c-6.66,7.27-14.98,4.76-17.21-4.69l-12.26-80.5-24.5-20.75c-1.75-.4-2.45,1.94-2.81,3.15-1.85,6.09-2.15,26.3-8.6,28.4l-78.45-.67c-6.53-5.86-4.25-14.44,4.12-16.66l62.34-.66,4.94-27.05c-.17-1.81-4.11-4.95-5.8-6.46C50,96.55,24.15,78.61,1.43,57.27c-5.97-13,8.1-18.98,17.03-9.03,54.73,46.16,110.18,91.48,165.11,137.39ZM146,191.21c3.86-4.66,5.38-12.42-2.01-13.99-.52,5.05.35,9.31,2.01,13.99Z"/>
      <path fill="#AFAA47" d="M182,134.22l-9.51,29.97c-3.08-2.53-14.78-9.46-14.52-13.39l18.8-66.3c4.48-7.99,14.76-6.25,16.97,2.46l10.68,64.32c.71,1.05,1.94.85,3.01.99,14.58,1.82,37.15-2.81,50.62.38,10.06,2.38,9.09,17.17-1.54,17.59l-62.58-.47c-8.06-2.46-8.24-24.26-9.95-32.05-.31-1.43.03-3.1-1.98-3.5Z"/>
      <path fill="#AFAA47" d="M135.99,133.21c-.66.76-5.54-3.29-6.47-4.02-8.33-6.46-13.28-8.94-15.27-19.73s-2.4-22.16-4.33-32.67c-.42-2.29-1.59-4.29-1.93-6.58-1.93.4-1.77,2-2,3.49-1.51,9.72-2.87,19.44-4.95,29.06-3.02,2.19-13.42-9.02-15.89-11.25L100.56,4.28c5.83-7.5,15.91-4.64,17.19,4.67,4.33,39.13,13.3,77.86,18.13,116.87.3,2.45.06,4.94.1,7.39Z"/>
    </g>
  </g>
</svg>