<?xml version="1.0" encoding="UTF-8"?>
<svg xmlns="http://www.w3.org/2000/svg" version="1.1" viewBox="0 0 265.1 255.3">
  <defs>
    <style>
      .cls-1 {
        fill: #fff;
      }
    </style>
  </defs>
  <!-- Generator: Adobe Illustrator 28.6.0, SVG Export Plug-In . SVG Version: 1.2.0 Build 709)  -->
  <g>
    <g id="Layer_2">
      <g id="Layer_1-2">
        <g>
          <path class="cls-1" d="M183.6,185.6c21.7,18.1,43.6,36,64.9,54.6,7.6,7.8-.8,18.9-10.9,13.9l-72.1-58.9-14.1,48c-6.7,7.3-15,4.8-17.2-4.7l-12.3-80.5-24.5-20.8c-1.8-.4-2.4,1.9-2.8,3.1-1.8,6.1-2.2,26.3-8.6,28.4l-78.4-.7c-6.5-5.9-4.2-14.4,4.1-16.7l62.3-.7,4.9-27.1c-.2-1.8-4.1-4.9-5.8-6.5C50,96.6,24.1,78.6,1.4,57.3c-6-13,8.1-19,17-9,54.7,46.2,110.2,91.5,165.1,137.4ZM146,191.2c3.9-4.7,5.4-12.4-2-14-.5,5.1.4,9.3,2,14Z"/>
          <path class="cls-1" d="M182,134.2l-9.5,30c-3.1-2.5-14.8-9.5-14.5-13.4l18.8-66.3c4.5-8,14.8-6.2,17,2.5l10.7,64.3c.7,1.1,1.9.9,3,1,14.6,1.8,37.2-2.8,50.6.4,10.1,2.4,9.1,17.2-1.5,17.6l-62.6-.5c-8.1-2.5-8.2-24.3-9.9-32.1-.3-1.4,0-3.1-2-3.5h0Z"/>
          <path class="cls-1" d="M136,133.2c-.7.8-5.5-3.3-6.5-4-8.3-6.5-13.3-8.9-15.3-19.7s-2.4-22.2-4.3-32.7c-.4-2.3-1.6-4.3-1.9-6.6-1.9.4-1.8,2-2,3.5-1.5,9.7-2.9,19.4-4.9,29.1-3,2.2-13.4-9-15.9-11.2L100.6,4.3c5.8-7.5,15.9-4.6,17.2,4.7,4.3,39.1,13.3,77.9,18.1,116.9.3,2.4,0,4.9.1,7.4h0Z"/>
        </g>
      </g>
    </g>
  </g>
</svg>